<svg width="70" height="70" viewBox="0 0 70 70" fill="none" xmlns="http://www.w3.org/2000/svg">
<path d="M35 0C15.6719 0 0 15.6719 0 35C0 54.3281 15.6719 70 35 70C54.3281 70 70 54.3281 70 35C70 15.6719 54.3281 0 35 0ZM50 36.875C50 37.2188 49.7188 37.5 49.375 37.5H37.5V49.375C37.5 49.7188 37.2188 50 36.875 50H33.125C32.7812 50 32.5 49.7188 32.5 49.375V37.5H20.625C20.2812 37.5 20 37.2188 20 36.875V33.125C20 32.7812 20.2812 32.5 20.625 32.5H32.5V20.625C32.5 20.2812 32.7812 20 33.125 20H36.875C37.2188 20 37.5 20.2812 37.5 20.625V32.5H49.375C49.7188 32.5 50 32.7812 50 33.125V36.875Z" fill="#1A5D54"/>
</svg>
