<svg width="60" height="60" viewBox="0 0 60 60" fill="none" xmlns="http://www.w3.org/2000/svg">
<path d="M30 -1.31134e-06C37.9565 -1.65913e-06 45.5871 3.1607 51.2132 8.78679C56.8393 14.4129 60 22.0435 60 30C60 37.9565 56.8393 45.5871 51.2132 51.2132C45.5871 56.8393 37.9565 60 30 60C22.0435 60 14.4129 56.8393 8.7868 51.2132C3.16071 45.5871 -9.63552e-07 37.9565 -1.31134e-06 30C-1.65913e-06 22.0435 3.1607 14.4129 8.78679 8.78679C14.4129 3.1607 22.0435 -9.63552e-07 30 -1.31134e-06V-1.31134e-06ZM16.875 28.125C16.3777 28.125 15.9008 28.3225 15.5492 28.6742C15.1975 29.0258 15 29.5027 15 30C15 30.4973 15.1975 30.9742 15.5492 31.3258C15.9008 31.6775 16.3777 31.875 16.875 31.875L38.5987 31.875L30.5475 39.9225C30.1954 40.2746 29.9976 40.7521 29.9976 41.25C29.9976 41.7479 30.1954 42.2254 30.5475 42.5775C30.8996 42.9296 31.3771 43.1274 31.875 43.1274C32.3729 43.1274 32.8504 42.9296 33.2025 42.5775L44.4525 31.3275C44.6271 31.1533 44.7656 30.9464 44.8602 30.7186C44.9547 30.4908 45.0033 30.2466 45.0033 30C45.0033 29.7534 44.9547 29.5092 44.8602 29.2814C44.7656 29.0536 44.6271 28.8467 44.4525 28.6725L33.2025 17.4225C32.8504 17.0704 32.3729 16.8726 31.875 16.8726C31.3771 16.8726 30.8996 17.0704 30.5475 17.4225C30.1954 17.7746 29.9976 18.2521 29.9976 18.75C29.9976 19.2479 30.1954 19.7254 30.5475 20.0775L38.5987 28.125L16.875 28.125Z" fill="#1A5D54"/>
</svg>
